<?xml version="1.0" encoding="UTF-8"?>
<svg width="28px" height="28px" viewBox="0 0 28 28" version="1.1" xmlns="http://www.w3.org/2000/svg" xmlns:xlink="http://www.w3.org/1999/xlink">
    <!-- Generator: Sketch 51.3 (57544) - http://www.bohemiancoding.com/sketch -->
    <title>logo-short-invert</title>
    <desc>Created with Sketch.</desc>
    <defs></defs>
    <g id="logo-short-invert" stroke="none" stroke-width="1" fill="none" fill-rule="evenodd">
        <path d="M10.5,19.2514428 C10.5,18.9284799 10.6881752,18.4784914 10.9152402,18.2514264 L13.5847598,15.5819069 C13.8140906,15.3525761 14.1881752,15.3548419 14.4152402,15.5819069 L17.0847598,18.2514264 C17.3140906,18.4807573 17.5,18.9325273 17.5,19.2514428 L17.5,25.0818906 C17.5,25.4048535 17.2341394,25.6666667 16.9152239,25.6666667 L11.0847761,25.6666667 C10.7618132,25.6666667 10.5,25.4008061 10.5,25.0818906 L10.5,19.2514428 Z M17.5,8.74855724 C17.5,9.07152015 17.3118248,9.52150856 17.0847598,9.74857357 L14.4152402,12.4180931 C14.1859094,12.6474239 13.8118248,12.6451581 13.5847598,12.4180931 L10.9152402,9.74857357 C10.6859094,9.51924272 10.5,9.06747275 10.5,8.74855724 L10.5,2.91810942 C10.5,2.5951465 10.7658606,2.33333333 11.0847761,2.33333333 L16.9152239,2.33333333 C17.2381868,2.33333333 17.5,2.59919389 17.5,2.91810942 L17.5,8.74855724 Z M7.75647798,17.0898113 C7.98301893,17.3163523 7.90086243,17.5 7.58601807,17.5 L2.91398192,17.5 C2.59329856,17.5 2.33333333,17.2341958 2.33333333,16.9193514 L2.33333333,12.2473153 C2.33333333,11.9266319 2.51431002,11.8476434 2.743522,12.0768553 L7.75647798,17.0898113 Z M8.75268473,10.5 C9.07336809,10.5 9.52150856,10.6881752 9.74857357,10.9152402 L12.4180931,13.5847598 C12.647424,13.8140906 12.6508828,14.1824506 12.4216323,14.411701 L10.3283677,16.5049656 C10.1009915,16.7323419 9.7315484,16.7315484 9.50551408,16.5055141 L3.91115256,10.9111526 C3.68407927,10.6840793 3.76580423,10.5 4.08064858,10.5 L8.75268473,10.5 Z M20.4139819,17.5 C20.0932986,17.5 20.01431,17.3190233 20.243522,17.0898113 L25.256478,12.0768554 C25.4830189,11.8503144 25.6666667,11.9324709 25.6666667,12.2473153 L25.6666667,16.9193514 C25.6666667,17.2400348 25.4008624,17.5 25.0860181,17.5 L20.4139819,17.5 Z M18.4944859,16.5055141 C18.2674126,16.7325874 17.9008828,16.7342161 17.6716323,16.5049656 L15.5783677,14.411701 C15.3509915,14.1843248 15.3548419,13.8118248 15.5819069,13.5847598 L18.2514264,10.9152402 C18.4807573,10.6859094 18.9324709,10.5 19.2473153,10.5 L23.9193514,10.5 C24.2400348,10.5 24.3148817,10.6851183 24.0888474,10.9111526 L18.4944859,16.5055141 Z" id="Shape" fill="#FFFFFF" fill-rule="nonzero"></path>
    </g>
</svg>