<svg width="195" height="28" viewBox="0 0 195 28" fill="none" xmlns="http://www.w3.org/2000/svg">
<path opacity="0.9" d="M10.5002 19.2516C10.5002 18.9286 10.6883 18.4787 10.9154 18.2516L13.5849 15.5821C13.8143 15.3527 14.1883 15.355 14.4154 15.5821L17.0849 18.2516C17.3143 18.4809 17.5002 18.9327 17.5002 19.2516V25.0821C17.5002 25.405 17.2343 25.6668 16.9154 25.6668H11.0849C10.762 25.6668 10.5002 25.401 10.5002 25.0821V19.2516ZM17.5002 8.74872C17.5002 9.07168 17.312 9.52167 17.0849 9.74874L14.4154 12.4183C14.1861 12.6476 13.812 12.6453 13.5849 12.4183L10.9154 9.74874C10.6861 9.51941 10.5002 9.06764 10.5002 8.74872V2.91827C10.5002 2.59531 10.766 2.3335 11.0849 2.3335H16.9154C17.2383 2.3335 17.5002 2.59936 17.5002 2.91827V8.74872ZM7.75664 17.09C7.98318 17.3165 7.90102 17.5002 7.58618 17.5002H2.91414C2.59346 17.5002 2.3335 17.2344 2.3335 16.9195V12.2475C2.3335 11.9268 2.51447 11.8478 2.74368 12.077L7.75664 17.09ZM8.75285 10.5002C9.07353 10.5002 9.52167 10.6883 9.74874 10.9154L12.4183 13.5849C12.6476 13.8143 12.651 14.1826 12.4218 14.4119L10.3285 16.5051C10.1012 16.7325 9.73171 16.7317 9.50568 16.5057L3.91132 10.9113C3.68424 10.6842 3.76597 10.5002 4.08081 10.5002H8.75285ZM20.4141 17.5002C20.0935 17.5002 20.0145 17.3192 20.2437 17.09L25.2566 12.077C25.4832 11.8505 25.6668 11.9326 25.6668 12.2475V16.9195C25.6668 17.2402 25.401 17.5002 25.0862 17.5002H20.4141ZM18.4946 16.5057C18.2676 16.7328 17.901 16.7344 17.6718 16.5051L15.5785 14.4119C15.3512 14.1845 15.355 13.812 15.5821 13.5849L18.2516 10.9154C18.4809 10.6861 18.9326 10.5002 19.2475 10.5002H23.9195C24.2402 10.5002 24.315 10.6853 24.089 10.9113L18.4946 16.5057Z" fill="black"/>
<g opacity="0.9">
<path d="M41.016 13.112V15.92H46.344V16.208L46.128 16.184C45.96 19.112 43.392 20.144 41.448 20.144C38.52 20.144 36.576 17.984 36.576 14.408C36.576 10.808 38.544 8.648 41.544 8.648C43.392 8.648 44.976 9.464 45.648 11.312H49.464C48.72 7.76 45.72 5.504 41.592 5.504C36.408 5.504 33 9.272 33 14.72C33 20.024 36.384 23.264 40.992 23.264C43.368 23.264 45.216 22.424 46.392 20.936L46.68 23.024H49.56V13.112H41.016Z" fill="black"/>
<path d="M63.9632 20.576C63.5552 20.576 63.2432 20.48 63.2432 19.856V15.2C63.2432 11.528 60.4352 10.304 57.7232 10.304C54.4592 10.304 52.1552 12.008 52.1552 14.816H55.2032C55.2512 13.712 56.1872 12.968 57.5792 12.968C58.9712 12.968 59.8592 13.736 59.8592 15.128V15.68H56.5232C53.3312 15.68 51.8432 17.192 51.8432 19.424C51.8432 21.824 53.6192 23.264 56.3792 23.264C58.2272 23.264 59.6672 22.616 60.3632 21.56C60.6272 22.64 61.5392 23.024 62.6432 23.024H64.4672V20.576H63.9632ZM59.8592 18.32C59.8592 19.808 58.8992 20.624 57.2432 20.624C56.1392 20.624 55.2992 20.24 55.2992 19.208C55.2992 18.536 55.6832 17.864 57.1232 17.864H59.8592V18.32Z" fill="black"/>
<path d="M80.8348 10.304C79.2748 10.304 77.7868 10.976 77.0428 12.44C76.2748 10.976 74.8348 10.304 73.1548 10.304C71.6428 10.304 70.4908 10.88 69.8908 11.912L69.5308 10.544H66.4108V23.024H69.7708V16.04C69.7708 14.192 70.7308 13.304 72.1468 13.304C73.4908 13.304 74.4028 14.144 74.4028 16.184V23.024H77.6428V16.112C77.6908 14.168 78.6988 13.304 80.0188 13.304C81.3868 13.304 82.2748 14.144 82.2748 16.016V23.048H85.6588V15.344C85.6588 11.888 83.3308 10.304 80.8348 10.304Z" fill="black"/>
<path d="M100.373 16.592C100.373 12.776 97.9009 10.304 94.1809 10.304C90.4609 10.304 87.9649 12.896 87.9649 16.784C87.9649 20.696 90.4609 23.288 94.2049 23.288C97.3489 23.288 99.7249 21.536 100.277 18.944H96.8929C96.5089 20.024 95.5249 20.576 94.3009 20.576C92.6929 20.576 91.3969 19.544 91.3489 17.696H100.373V16.592ZM94.1809 12.92C95.6449 12.92 96.8689 13.76 97.0129 15.488H91.3729C91.5169 13.76 92.7409 12.92 94.1809 12.92Z" fill="black"/>
<path d="M101.994 19.112C102.018 21.632 104.442 23.264 107.754 23.264C110.682 23.264 113.202 21.944 113.202 19.256C113.202 17.432 112.17 16.208 109.818 15.728L107.466 15.248C106.242 15.032 105.642 14.72 105.642 14C105.642 13.232 106.338 12.704 107.562 12.704C108.81 12.704 109.722 13.304 109.746 14.36H113.034C113.034 11.864 110.73 10.304 107.562 10.304C104.658 10.304 102.306 11.816 102.306 14.144C102.306 15.824 103.098 17.216 105.594 17.672L107.994 18.128C109.338 18.368 109.77 18.8 109.77 19.568C109.77 20.408 109.026 20.864 107.706 20.864C106.362 20.864 105.306 20.24 105.282 19.112H101.994Z" fill="black"/>
<path d="M118.9 23.024H122.764L126.388 10.28L129.868 23.024H133.732L138.46 5.744H134.956L131.74 18.704L128.38 5.744H124.588L120.988 18.68L117.892 5.744H114.292L118.9 23.024Z" fill="black"/>
<path d="M150.705 20.576C150.297 20.576 149.985 20.48 149.985 19.856V15.2C149.985 11.528 147.177 10.304 144.465 10.304C141.201 10.304 138.897 12.008 138.897 14.816H141.945C141.993 13.712 142.929 12.968 144.321 12.968C145.713 12.968 146.601 13.736 146.601 15.128V15.68H143.265C140.073 15.68 138.585 17.192 138.585 19.424C138.585 21.824 140.361 23.264 143.121 23.264C144.969 23.264 146.409 22.616 147.105 21.56C147.369 22.64 148.281 23.024 149.385 23.024H151.209V20.576H150.705ZM146.601 18.32C146.601 19.808 145.641 20.624 143.985 20.624C142.881 20.624 142.041 20.24 142.041 19.208C142.041 18.536 142.425 17.864 143.865 17.864H146.601V18.32Z" fill="black"/>
<path d="M157.264 23.024H159.808V20.072H158.344C157.24 20.072 156.952 19.664 156.952 18.584V13.52H159.808V10.544H156.952V7.136H153.592V9.32C153.592 10.16 153.376 10.544 152.608 10.544H151.672V13.52H153.592V19.328C153.592 21.584 154.792 23.024 157.264 23.024Z" fill="black"/>
<path d="M170.273 15.392H173.849C173.297 12.128 170.921 10.304 167.753 10.304C163.961 10.304 161.417 12.896 161.417 16.784C161.417 20.696 163.961 23.288 167.729 23.288C170.873 23.288 173.249 21.368 173.849 18.128H170.273C169.865 19.592 168.977 20.36 167.633 20.36C166.049 20.36 164.849 19.208 164.849 16.784C164.849 14.576 165.977 13.184 167.729 13.184C168.977 13.184 169.961 13.952 170.273 15.392Z" fill="black"/>
<path d="M182.943 10.304C181.167 10.304 179.919 10.952 179.247 11.936V5H175.887V23.024H179.247V16.376C179.247 14.552 180.231 13.376 182.007 13.352C183.687 13.304 184.671 14.36 184.671 16.472V23.024H188.031V15.968C188.031 11.528 185.271 10.304 182.943 10.304Z" fill="black"/>
</g>
</svg>
