<svg width="30" height="30" viewBox="0 0 30 30" fill="none" xmlns="http://www.w3.org/2000/svg">
<path opacity="0.9" d="M11.25 20.6265C11.25 20.2805 11.4516 19.7984 11.6949 19.5551L14.5551 16.6949C14.8008 16.4492 15.2016 16.4516 15.4449 16.6949L18.3051 19.5551C18.5508 19.8008 18.75 20.2848 18.75 20.6265V26.8735C18.75 27.2195 18.4651 27.5 18.1235 27.5H11.8765C11.5305 27.5 11.25 27.2151 11.25 26.8735V20.6265ZM18.75 9.37345C18.75 9.71949 18.5484 10.2016 18.3051 10.4449L15.4449 13.3051C15.1992 13.5508 14.7984 13.5484 14.5551 13.3051L11.6949 10.4449C11.4492 10.1992 11.25 9.71515 11.25 9.37345V3.12655C11.25 2.78051 11.5349 2.5 11.8765 2.5H18.1235C18.4695 2.5 18.75 2.78485 18.75 3.12655V9.37345ZM8.31051 18.3105C8.55323 18.5532 8.46521 18.75 8.12788 18.75H3.12212C2.77853 18.75 2.5 18.4652 2.5 18.1279V13.1221C2.5 12.7785 2.6939 12.6939 2.93949 12.9395L8.31051 18.3105ZM9.37788 11.25C9.72147 11.25 10.2016 11.4516 10.4449 11.6949L13.3051 14.5551C13.5508 14.8008 13.5545 15.1955 13.3089 15.4411L11.0661 17.6839C10.8225 17.9275 10.4267 17.9267 10.1845 17.6845L4.19052 11.6905C3.94723 11.4472 4.03479 11.25 4.37212 11.25H9.37788ZM21.8721 18.75C21.5285 18.75 21.4439 18.5561 21.6895 18.3105L27.0605 12.9395C27.3032 12.6968 27.5 12.7848 27.5 13.1221V18.1279C27.5 18.4715 27.2152 18.75 26.8779 18.75H21.8721ZM19.8155 17.6845C19.5722 17.9278 19.1795 17.9295 18.9339 17.6839L16.6911 15.4411C16.4475 15.1975 16.4516 14.7984 16.6949 14.5551L19.5551 11.6949C19.8008 11.4492 20.2848 11.25 20.6221 11.25H25.6279C25.9715 11.25 26.0517 11.4483 25.8095 11.6905L19.8155 17.6845Z" fill="black"/>
</svg>
