<svg width="80" height="80" viewBox="0 0 80 80" fill="none" xmlns="http://www.w3.org/2000/svg">
<rect width="80" height="80" fill="white"/>
<path fill-rule="evenodd" clip-rule="evenodd" d="M54 11.5H26C17.9919 11.5 11.5 17.9919 11.5 26V54C11.5 62.0081 17.9919 68.5 26 68.5H54C62.0081 68.5 68.5 62.0081 68.5 54V26C68.5 17.9919 62.0081 11.5 54 11.5ZM26 10C17.1634 10 10 17.1634 10 26V54C10 62.8366 17.1634 70 26 70H54C62.8366 70 70 62.8366 70 54V26C70 17.1634 62.8366 10 54 10H26ZM26.5 40C26.5 47.4558 32.5442 53.5 40 53.5C47.4558 53.5 53.5 47.4558 53.5 40C53.5 32.5442 47.4558 26.5 40 26.5C32.5442 26.5 26.5 32.5442 26.5 40ZM40 25C31.7157 25 25 31.7157 25 40C25 48.2843 31.7157 55 40 55C48.2843 55 55 48.2843 55 40C55 31.7157 48.2843 25 40 25ZM55.75 20.5C53.6789 20.5 52 22.1789 52 24.25C52 26.3211 53.6789 28 55.75 28C57.8211 28 59.5 26.3211 59.5 24.25C59.5 22.1789 57.8211 20.5 55.75 20.5Z" fill="black"/>
</svg>
