<svg width="80" height="80" viewBox="0 0 80 80" fill="none" xmlns="http://www.w3.org/2000/svg">
<rect width="80" height="80" fill="white"/>
<path fill-rule="evenodd" clip-rule="evenodd" d="M40 71.5C57.397 71.5 71.5 57.397 71.5 40C71.5 22.603 57.397 8.5 40 8.5C22.603 8.5 8.5 22.603 8.5 40C8.5 57.397 22.603 71.5 40 71.5ZM40 73C58.2254 73 73 58.2254 73 40C73 21.7746 58.2254 7 40 7C21.7746 7 7 21.7746 7 40C7 58.2254 21.7746 73 40 73Z" fill="black"/>
<path fill-rule="evenodd" clip-rule="evenodd" d="M22.3919 48.4391C22.3917 48.4387 22.3914 48.4384 23 48C23.6085 47.5617 23.6084 47.5614 23.6082 47.5612L23.608 47.5609L23.6095 47.5629L23.6187 47.5755C23.6277 47.5875 23.6422 47.6068 23.6622 47.6329C23.7024 47.6851 23.7647 47.7645 23.8492 47.8671C24.0182 48.0724 24.2756 48.3705 24.6214 48.7305C25.3135 49.451 26.3566 50.4169 27.7497 51.3839C30.5332 53.316 34.7088 55.25 40.2881 55.25C45.8651 55.25 49.8914 53.3177 52.5236 51.3945C53.8421 50.4311 54.8117 49.469 55.4488 48.7519C55.7672 48.3936 56.0019 48.0971 56.155 47.8933C56.2315 47.7914 56.2876 47.7128 56.3235 47.6613C56.3414 47.6355 56.3543 47.6166 56.3621 47.6049L56.3702 47.5928L56.371 47.5915C56.3709 47.5918 56.3707 47.592 57 48C57.6293 48.408 57.6291 48.4084 57.6288 48.4087L57.6283 48.4096L57.6267 48.412L57.6222 48.4188L57.6074 48.4411C57.5949 48.4597 57.5773 48.4856 57.5544 48.5185C57.5087 48.5841 57.4421 48.6774 57.3543 48.7942C57.1787 49.028 56.9182 49.3565 56.5702 49.7482C55.8747 50.531 54.8273 51.569 53.4086 52.6056C50.5662 54.6824 46.2366 56.75 40.2881 56.75C34.342 56.75 29.8736 54.6841 26.8944 52.6162C25.4061 51.5831 24.2882 50.549 23.5396 49.7696C23.1651 49.3796 22.8823 49.0527 22.6911 48.8205C22.5955 48.7043 22.5227 48.6118 22.4728 48.5468C22.4478 48.5143 22.4286 48.4887 22.415 48.4705L22.399 48.4487L22.3941 48.4421L22.3925 48.4399L22.3919 48.4391ZM23.608 47.5609C23.6079 47.5608 23.6079 47.5608 23.608 47.5609L23.608 47.5609Z" fill="black"/>
<path fill-rule="evenodd" clip-rule="evenodd" d="M54.1129 47.7647C54.1132 47.7646 54.1135 47.7646 54 47.0232C53.8865 46.2818 53.8868 46.2818 53.8871 46.2818L53.8892 46.2814L53.8925 46.2809L53.9012 46.2797L53.9262 46.2764C53.9462 46.2739 53.9727 46.2708 54.0053 46.2677C54.0704 46.2615 54.1601 46.2549 54.2697 46.2518C54.4881 46.2456 54.791 46.2533 55.1404 46.3075C55.8368 46.4155 56.7523 46.7149 57.5303 47.4929C57.9776 47.9402 58.3827 48.4832 58.668 48.8983C58.8129 49.109 58.9314 49.2933 59.0141 49.4257C59.0555 49.492 59.0882 49.5455 59.1108 49.5831L59.1372 49.6273L59.1445 49.6397L59.1467 49.6434L59.1474 49.6446C59.1474 49.6446 59.1478 49.6453 58.5 50.0232C57.8522 50.4011 57.8522 50.4012 57.8522 50.4012L57.8514 50.3998L57.8467 50.3918L57.8259 50.357C57.8071 50.3259 57.7788 50.2794 57.7421 50.2207C57.6686 50.1031 57.5621 49.9374 57.432 49.7481C57.1673 49.3632 56.8224 48.9063 56.4697 48.5536C55.982 48.0659 55.3975 47.8653 54.9104 47.7898C54.668 47.7521 54.4581 47.7471 54.3118 47.7512C54.2391 47.7532 54.1833 47.7575 54.1487 47.7608C54.1313 47.7625 54.119 47.7639 54.1129 47.7647C54.1099 47.765 54.1088 47.7653 54.1088 47.7653L54.11 47.7651L54.1114 47.7649L54.1129 47.7647Z" fill="black"/>
<path fill-rule="evenodd" clip-rule="evenodd" d="M25.3871 47.7414C25.3868 47.7414 25.3865 47.7413 25.5 47C25.6135 46.2586 25.6132 46.2585 25.6129 46.2585L25.6108 46.2582L25.6075 46.2577L25.5988 46.2564L25.5738 46.2531C25.5538 46.2506 25.5273 46.2476 25.4947 46.2444C25.4296 46.2382 25.3399 46.2316 25.2303 46.2285C25.0119 46.2224 24.709 46.23 24.3596 46.2842C23.6632 46.3923 22.7477 46.6917 21.9697 47.4696C21.5224 47.9169 21.1173 48.46 20.832 48.8751C20.6871 49.0857 20.5686 49.2701 20.4859 49.4025C20.4445 49.4687 20.4118 49.5223 20.3892 49.5599L20.3628 49.604L20.3555 49.6164L20.3533 49.6201L20.3526 49.6213C20.3526 49.6214 20.3522 49.6221 21 50C21.6478 50.3779 21.6478 50.3779 21.6478 50.378L21.6486 50.3765L21.6533 50.3685L21.6741 50.3338C21.6929 50.3026 21.7212 50.2562 21.7579 50.1975C21.8314 50.0798 21.9379 49.9142 22.068 49.7249C22.3327 49.3399 22.6776 48.883 23.0303 48.5303C23.518 48.0427 24.1025 47.8421 24.5896 47.7665C24.832 47.7289 25.0419 47.7238 25.1882 47.7279C25.2609 47.73 25.3167 47.7343 25.3513 47.7376C25.3687 47.7392 25.381 47.7406 25.3871 47.7414C25.3901 47.7418 25.3912 47.742 25.3912 47.742L25.39 47.7418L25.3886 47.7416L25.3871 47.7414Z" fill="black"/>
<mask id="path-5-inside-1" fill="white">
<path fill-rule="evenodd" clip-rule="evenodd" d="M32.5 43C34.433 43 36 39.1944 36 34.5C36 29.8056 34.433 26 32.5 26C30.567 26 29 29.8056 29 34.5C29 39.1944 30.567 43 32.5 43ZM46.5 43C48.433 43 50 39.1944 50 34.5C50 29.8056 48.433 26 46.5 26C44.567 26 43 29.8056 43 34.5C43 39.1944 44.567 43 46.5 43Z"/>
</mask>
<path fill-rule="evenodd" clip-rule="evenodd" d="M32.5 43C34.433 43 36 39.1944 36 34.5C36 29.8056 34.433 26 32.5 26C30.567 26 29 29.8056 29 34.5C29 39.1944 30.567 43 32.5 43ZM46.5 43C48.433 43 50 39.1944 50 34.5C50 29.8056 48.433 26 46.5 26C44.567 26 43 29.8056 43 34.5C43 39.1944 44.567 43 46.5 43Z" fill="black"/>
<path d="M34.5 34.5C34.5 36.7006 34.1299 38.6229 33.5879 39.9393C33.3154 40.601 33.0289 41.0378 32.7876 41.2857C32.5508 41.5289 32.4542 41.5 32.5 41.5V44.5C33.5123 44.5 34.3364 43.9954 34.9372 43.3784C35.5333 42.766 36.001 41.958 36.3619 41.0815C37.0866 39.3215 37.5 36.9938 37.5 34.5H34.5ZM32.5 27.5C32.4542 27.5 32.5508 27.4711 32.7876 27.7143C33.0289 27.9622 33.3154 28.399 33.5879 29.0607C34.1299 30.3771 34.5 32.2994 34.5 34.5H37.5C37.5 32.0062 37.0866 29.6785 36.3619 27.9185C36.001 27.042 35.5333 26.234 34.9372 25.6216C34.3364 25.0046 33.5123 24.5 32.5 24.5V27.5ZM30.5 34.5C30.5 32.2994 30.8701 30.3771 31.4121 29.0607C31.6846 28.399 31.9711 27.9622 32.2124 27.7143C32.4492 27.4711 32.5458 27.5 32.5 27.5V24.5C31.4877 24.5 30.6636 25.0046 30.0628 25.6216C29.4667 26.234 28.999 27.042 28.6381 27.9185C27.9134 29.6785 27.5 32.0062 27.5 34.5H30.5ZM32.5 41.5C32.5458 41.5 32.4492 41.5289 32.2124 41.2857C31.9711 41.0378 31.6846 40.601 31.4121 39.9393C30.8701 38.6229 30.5 36.7006 30.5 34.5H27.5C27.5 36.9938 27.9134 39.3215 28.6381 41.0815C28.999 41.958 29.4667 42.766 30.0628 43.3784C30.6636 43.9954 31.4877 44.5 32.5 44.5V41.5ZM48.5 34.5C48.5 36.7006 48.1299 38.6229 47.5879 39.9393C47.3154 40.601 47.0289 41.0378 46.7876 41.2857C46.5508 41.5289 46.4542 41.5 46.5 41.5V44.5C47.5123 44.5 48.3364 43.9954 48.9372 43.3784C49.5333 42.766 50.001 41.958 50.3619 41.0815C51.0866 39.3215 51.5 36.9938 51.5 34.5H48.5ZM46.5 27.5C46.4542 27.5 46.5508 27.4711 46.7876 27.7143C47.0289 27.9622 47.3154 28.399 47.5879 29.0607C48.1299 30.3771 48.5 32.2994 48.5 34.5H51.5C51.5 32.0062 51.0866 29.6785 50.3619 27.9185C50.001 27.042 49.5333 26.234 48.9372 25.6216C48.3364 25.0046 47.5123 24.5 46.5 24.5V27.5ZM44.5 34.5C44.5 32.2994 44.8701 30.3771 45.4121 29.0607C45.6846 28.399 45.9711 27.9622 46.2124 27.7143C46.4492 27.4711 46.5458 27.5 46.5 27.5V24.5C45.4877 24.5 44.6636 25.0046 44.0628 25.6216C43.4667 26.234 42.999 27.042 42.6381 27.9185C41.9134 29.6785 41.5 32.0062 41.5 34.5H44.5ZM46.5 41.5C46.5458 41.5 46.4492 41.5289 46.2124 41.2857C45.9711 41.0378 45.6846 40.601 45.4121 39.9393C44.8701 38.6229 44.5 36.7006 44.5 34.5H41.5C41.5 36.9938 41.9134 39.3215 42.6381 41.0815C42.999 41.958 43.4667 42.766 44.0628 43.3784C44.6636 43.9954 45.4877 44.5 46.5 44.5V41.5Z" fill="black" mask="url(#path-5-inside-1)"/>
</svg>
